# xmcd
#
# Track frame offsets:
#	150
#	20185
#	39282
#	58175
#	71647
#	88442
#	105635
#	125262
#	147147
#	162465
#
# Disc length: 2461 seconds
#
# Revision: 1
# Processed by: cddbd v1.5.1PL0 Copyright (c) Steve Scherf et al.
# Submitted via: CDex 1.50Beta5
#
DISCID=90099b0a
DTITLE=グロリア・イップ - 原宿
DYEAR=1990
DGENRE=Pop
TTITLE0=MOON RIVER
TTITLE1=夏の日の恋
TTITLE2=ミスターポストマン
TTITLE3=コメ・プリマ
TTITLE4=愛がすべて
TTITLE5=マッシュ・ケ・ナダ
TTITLE6=ASHURA
TTITLE7=ようこそグロリア
TTITLE8=S.O.S
TTITLE9=Total Heaven
EXTD=
EXTT0=
EXTT1=
EXTT2=
EXTT3=
EXTT4=
EXTT5=
EXTT6=
EXTT7=
EXTT8=
EXTT9=
PLAYORDER=
